<svg id="Layer_1" xmlns="http://www.w3.org/2000/svg" viewBox="0 0 592.4 183.9"><style>.st0{fill:#febe10}.st1{fill:#fdb813}</style><circle class="st0" cx="91.9" cy="91.9" r="85.1"/><path class="st0" d="M91.9 183.9c-50.6 0-91.9-41.3-91.9-92C0 41.3 41.3 0 92 0s91.9 41.3 91.9 91.9-41.3 92-92 92zm0-170.2c-43.1 0-78.2 35.1-78.2 78.2s35.1 78.2 78.2 78.2 78.2-35.1 78.2-78.2-35-78.2-78.2-78.2z"/><path d="M75.1 85l-.5 46.4s0 .4.2.6c.3.2 1.4.6 5.2.6 3.7 0 4.9-.5 5.2-.6.3-.2.3-.5.3-.5L85 85c-.5-.4-1.9-1-4.9-1-3.2 0-4.5.6-5 1"/><path d="M80 69.6c-6 0-7.4 2-7.4 2l-.1.4s1.2.1 1.7 1.3c.7 1.6.9 7.7.9 7.7v4.9c.8-.5 2.7 6.3 5.4 6.3s3.7-4.1 4.5-3.7l-.1-7.5s-.1-5.3 1-7.6c.6-1.3 1.6-1.5 1.6-1.5v-.6S86 69.6 80 69.6M98.8 85l-.4 46.5s0 .4.3.5c.3.2 1.4.6 5.2.6 3.7 0 4.9-.4 5.2-.6.3-.2.2-.5.2-.5l-.5-46.5c-.5-.4-1.8-1-5-1-3.1 0-4.5.6-5 1"/><path d="M111.2 71.6s-1.4-2-7.4-2-7.5 1.7-7.5 1.7l.1.6s1 .2 1.6 1.5c1.1 2.3.9 7.6.9 7.6v5.3c.8-.4 3.7 2 6.4 2s2.7-1.6 3.5-1.2l-.1-6s.2-6.2.9-7.8c.5-1.2 1.7-1.3 1.7-1.3l-.1-.4z"/><path d="M145.4 60.1s-1.1-5.3 1.2-8.3c1.1-1.4 2.8-3.6 2.8-3.6v-1.9c0-.2-.1-.2-.2-.2h-31.4c-.2 0-.3.1-.3.2v3.3H66.6v-3.3c0-.1-.1-.2-.3-.2H34.9c-.1 0-.2.1-.2.2v1.9s2.1 2.5 3.1 3.9c1.8 2.7.9 8 .9 8l-10.2 75.4h29.9l2-3 4.7-68.7H119l4.7 68.7s-.4 3.1 2 3.1h29.9l-10.2-75.5z"/><path d="M92 22c38.3 0 69.5 31.4 69.5 70s-31.2 70-69.5 70-69.5-31.4-69.5-70S53.7 22 92 22m0-11.8c-44.9 0-81.4 36.6-81.4 81.8S47 173.8 92 173.8c44.9 0 81.4-36.6 81.4-81.8S136.9 10.2 92 10.2z"/><path class="st1" d="M49.8 120.8h-8.2l7.2-53.6h4.7m80.7 53.6h8.2l-7.2-53.6h-4.7"/><path class="st0" d="M185.4 22.8h41.9l31.1 99.1 32.8-99.1h37.7L279 159.6h-45.3L185.4 22.8zm227.2 43c-1.7-13.8-11.4-18.9-22.2-18.9-22.9 0-29.9 21-29.9 46.1 0 8.3.2 42.8 29.6 42.8 20.1 0 22.2-14.6 22.9-19.9h39.4c-.2 42.8-43.8 46.4-61.6 46.4-13.3 0-36.8-2.3-51.9-18.2-15-15.9-17.6-37.7-17.6-51.9 0-18.8 4.4-37.5 17.3-52.1 14-15.9 32-20.1 51.9-20.1 22.2 0 39 5.3 49.8 16.7 11 11.8 11.2 24.1 11.4 29.2l-39.1-.1zm87.9-43v81.3c0 7.4.6 15 4.4 20.7 5.1 7.6 14 11.2 23.3 11.2 24 0 27.3-19.5 27.3-33.2v-80h36.9V102c0 15.2-2.1 31.6-10.6 41.7-13.3 16.3-37.7 19.5-55 19.5-64.6 0-64.8-40.2-64.8-62.5l.2-77.9h38.3z"/><path d="M92.9 143.1l37.3 4.5-37.3 4.4s-9.3.1-9.3-4.5c0-4.5 9.3-4.4 9.3-4.4"/><path d="M91 152.1l-37.3-4.5 37.3-4.5s9.3-.1 9.3 4.5-9.3 4.4-9.3 4.5"/><circle cx="92" cy="147.5" r="5.8"/><path class="st0" d="M92 141.6c3.2 0 5.8 2.6 5.8 5.8 0 3.2-2.6 5.8-5.8 5.8-3.2 0-5.8-2.6-5.8-5.8 0-3.1 2.6-5.8 5.8-5.8m0-2.8c-4.8 0-8.7 3.9-8.7 8.7 0 4.8 3.9 8.7 8.7 8.7 4.8 0 8.7-3.9 8.7-8.7s-3.9-8.7-8.7-8.7z"/><g><path d="M92.2 30.7l27.1 3.7-27.1 3.7s-7.7.1-7.7-3.7c0-3.8 7.7-3.7 7.7-3.7"/><path d="M90.7 38.2l-27.1-3.7 27.1-3.7s7.7-.1 7.7 3.7c0 3.8-7.7 3.7-7.7 3.7"/><circle cx="91.5" cy="34.4" r="4.9"/><path class="st0" d="M91.5 29.6c2.7 0 4.9 2.2 4.9 4.8 0 2.7-2.2 4.9-4.8 4.9-2.7 0-4.9-2.2-4.9-4.8 0-2.8 2.1-4.9 4.8-4.9m0-2.9c-4.2 0-7.7 3.4-7.7 7.7 0 4.2 3.4 7.7 7.7 7.7s7.7-3.4 7.7-7.7c0-4.2-3.5-7.7-7.7-7.7z"/></g></svg>